<svg width="140" height="40" viewBox="0 0 140 40" fill="none" xmlns="http://www.w3.org/2000/svg">
<path d="M62.8396 17.9992H65.637V27.9992H62.8396V26.6992C61.8406 28.1992 60.5418 28.2992 59.7425 28.2992C56.6454 28.2992 54.6473 25.8992 54.6473 22.9992C54.6473 19.9992 56.6454 17.6992 59.5427 17.6992C60.342 17.6992 61.8406 17.7992 62.7397 19.2992V17.9992H62.8396ZM57.6445 22.9992C57.6445 24.5992 58.7435 25.7992 60.4419 25.7992C62.0404 25.7992 63.2393 24.5992 63.2393 22.9992C63.2393 21.3992 62.1403 20.1992 60.4419 20.1992C58.8434 20.1992 57.6445 21.3992 57.6445 22.9992ZM71.1319 20.3992V27.9992H68.3345V20.3992H67.2355V17.9992H68.3345V14.5992H71.1319V17.9992H73.0301V20.3992H71.1319ZM79.6239 20.3992C78.9246 19.7992 78.3252 19.6992 78.0254 19.6992C77.3261 19.6992 76.9265 19.9992 76.9265 20.4992C76.9265 20.7992 77.0264 21.0992 77.8256 21.3992L78.525 21.5992C79.3242 21.8992 80.5231 22.1992 81.0226 22.9992C81.3224 23.3992 81.5222 23.9992 81.5222 24.6992C81.5222 25.5992 81.2225 26.4992 80.4232 27.1992C79.6239 27.8992 78.6249 28.2992 77.426 28.2992C75.328 28.2992 74.229 27.2992 73.5296 26.5992L75.0282 24.8992C75.6277 25.4992 76.4269 26.0992 77.2262 26.0992C78.0254 26.0992 78.6249 25.6992 78.6249 24.9992C78.6249 24.3992 78.1254 24.0992 77.7257 23.9992L77.1263 23.7992C76.4269 23.4992 75.6277 23.1992 75.0282 22.5992C74.5287 22.0992 74.229 21.4992 74.229 20.6992C74.229 19.6992 74.7285 18.8992 75.2281 18.3992C76.0273 17.7992 77.0264 17.6992 77.8256 17.6992C78.525 17.6992 79.7239 17.7992 81.0226 18.7992L79.6239 20.3992V20.3992ZM85.7183 19.2992C86.7173 17.8992 88.116 17.6992 88.9153 17.6992C91.8126 17.6992 93.8107 19.9992 93.8107 22.9992C93.8107 25.9992 91.8126 28.2992 88.8154 28.2992C88.2159 28.2992 86.7173 28.1992 85.6183 26.6992V27.9992H82.9209V11.1992H85.7183V19.2992ZM85.4185 22.9992C85.4185 24.5992 86.5175 25.7992 88.2159 25.7992C89.8144 25.7992 91.0133 24.5992 91.0133 22.9992C91.0133 21.3992 89.9143 20.1992 88.2159 20.1992C86.5175 20.1992 85.4185 21.3992 85.4185 22.9992ZM98.4064 26.4992L93.6109 17.9992H96.9078L100.005 23.6992L102.802 17.9992H105.999L98.0068 33.2992H94.8098L98.4064 26.4992V26.4992ZM53.9479 19.6992H51.1506H46.9545V22.4992H50.651C50.0516 24.3992 48.6529 25.6992 46.0553 25.6992C43.158 25.6992 41.06 23.2992 41.06 20.3992C41.06 17.4992 43.0581 14.9992 45.9554 14.9992C47.5539 14.9992 49.1524 15.7992 50.1515 17.0992L52.4493 15.5992C50.9508 13.4992 48.553 12.2992 45.9554 12.2992C41.5595 12.2992 37.9629 15.8992 37.9629 20.3992C37.9629 24.8992 41.3597 28.4992 45.9554 28.4992C50.5511 28.4992 53.9479 24.8992 53.9479 20.3992C54.0479 20.0992 53.9479 19.8992 53.9479 19.6992V19.6992Z" fill="#73737D"/>
<path d="M14 6C6.3 6 0 12.3 0 20C0 27.7 6.3 34 14 34C21.7 34 28 27.7 28 20C28 12.3 21.7 6 14 6ZM6.2 27.8C4.1 25.7 3 22.9 3 20.2L13.9 31C11.1 30.9 8.3 29.9 6.2 27.8ZM16.4 30.7L3.3 17.6C4.4 12.7 8.8 9 14 9C17.7 9 20.9 10.8 22.9 13.5L21.4 14.8C19.7 12.5 17 11 14 11C10.1 11 6.8 13.5 5.5 17L17 28.5C19.9 27.5 22.1 25 22.8 22H18V20H25C25 25.2 21.3 29.6 16.4 30.7Z" fill="#73737D"/>
</svg>
