<svg width="19" height="19" viewBox="0 0 19 19" fill="none" xmlns="http://www.w3.org/2000/svg">
<path d="M9.5 0C4.275 0 0 4.275 0 9.5C0 14.725 4.275 19 9.5 19C14.725 19 19 14.725 19 9.5C19 4.275 14.725 0 9.5 0ZM4.20714 14.7929C2.78214 13.3679 2.03571 11.4679 2.03571 9.63571L9.43214 16.9643C7.53214 16.8964 5.63214 16.2179 4.20714 14.7929ZM11.1286 16.7607L2.23929 7.87143C2.98571 4.54643 5.97143 2.03571 9.5 2.03571C12.0107 2.03571 14.1821 3.25714 15.5393 5.08929L14.5214 5.97143C13.3679 4.41071 11.5357 3.39286 9.5 3.39286C6.85357 3.39286 4.61429 5.08929 3.73214 7.46429L11.5357 15.2679C13.5036 14.5893 14.9964 12.8929 15.4714 10.8571H12.2143V9.5H16.9643C16.9643 13.0286 14.4536 16.0143 11.1286 16.7607Z" fill="white" fill-opacity="0.25"/>
</svg>
