<?xml version="1.0" encoding="UTF-8" standalone="no"?>
<svg
   xmlns:dc="http://purl.org/dc/elements/1.1/"
   xmlns:cc="http://creativecommons.org/ns#"
   xmlns:rdf="http://www.w3.org/1999/02/22-rdf-syntax-ns#"
   xmlns:svg="http://www.w3.org/2000/svg"
   xmlns="http://www.w3.org/2000/svg"
   viewBox="0 0 344.81866 344.81866"
   height="344.81866"
   width="344.81866"
   xml:space="preserve"
   id="svg2"
   version="1.1"><metadata
     id="metadata8"><rdf:RDF><cc:Work
         rdf:about=""><dc:format>image/svg+xml</dc:format><dc:type
           rdf:resource="http://purl.org/dc/dcmitype/StillImage" /></cc:Work></rdf:RDF></metadata><defs
     id="defs6"><clipPath
       id="clipPath20"
       clipPathUnits="userSpaceOnUse"><path
         id="path18"
         d="M 0,258.614 H 258.614 V 0 H 0 Z" /></clipPath></defs><g
     transform="matrix(1.3333333,0,0,-1.3333333,0,344.81867)"
     id="g10"><path
       id="path12"
       style="fill:#20273a;fill-opacity:1;fill-rule:nonzero;stroke:none"
       d="M 0,0 H 258.614 V 258.614 H 0 Z" /><g
       id="g14"><g
         clip-path="url(#clipPath20)"
         id="g16"><g
           transform="translate(80.3418,89.4404)"
           id="g22"><path
             id="path24"
             style="fill:#c98b7c;fill-opacity:1;fill-rule:nonzero;stroke:none"
             d="m 0,0 v 79.849 c 0,1.625 0.967,2.437 2.9,2.437 1.934,0 2.903,-0.812 2.903,-2.437 V 0 C 5.803,-1.703 4.834,-2.553 2.9,-2.553 0.967,-2.553 0,-1.703 0,0" /></g><g
           transform="translate(119.5352,89.4404)"
           id="g26"><path
             id="path28"
             style="fill:#c98b7c;fill-opacity:1;fill-rule:nonzero;stroke:none"
             d="m 0,0 v 79.849 c 0,1.625 1.934,2.437 5.803,2.437 3.865,0 5.802,-0.812 5.802,-2.437 V 0 c 0,-1.703 -1.937,-2.553 -5.802,-2.553 C 1.934,-2.553 0,-1.703 0,0" /></g><g
           transform="translate(160.8657,89.4404)"
           id="g30"><path
             id="path32"
             style="fill:#c98b7c;fill-opacity:1;fill-rule:nonzero;stroke:none"
             d="m 0,0 v 79.849 c 0,1.625 2.9,2.437 8.705,2.437 5.799,0 8.705,-0.812 8.705,-2.437 V 0 c 0,-1.703 -2.906,-2.553 -8.705,-2.553 C 2.9,-2.553 0,-1.703 0,0" /></g></g></g></g></svg>