<svg xmlns="http://www.w3.org/2000/svg" width="230px" height="35px" viewBox="0 0 1601 282">
    <!-- <g fill="#FFF" fillRule="evenodd">
        <path d="M0 281.128h215.048V247.95H0zM.057 231.627l65.839-46.202-.008-42.082L.057 97.22zM214.885 0l-66.108 45.675v41.416l66.13 46.51-.02-133.6zM913.339 52.205h58.12V230.03h58.949V52.205h58.12V2.003h-175.19zM320.332 2.002L234.014 230.03h62.858l55.641-160.588 26.467 75.91h-37.375l-15.738 45.06h68.753l13.535 39.618h62.858L384.695 2.002zM771.967 2.002L685.649 230.03h62.858l55.64-160.588 26.467 75.91H793.24l-15.738 45.06h68.752l13.535 39.618h62.859L836.328 2.002zM1273.245 2.002h-64.063l82.332 196.952 29.457-75.926zM1596.813 137.942V92.88h-51.569l-.16 45.062z"/>
        <path d="M1471.695 2.003V230.03h129.027v-50.203h-70.078V52.205h70.078V2.003zM1124.339 52.308l58.949-.02V2.002h-58.95zM1124.339 230.03h58.949V67.012l-58.95-.187zM1382.343 2.004l-88.095 228.12 58.924-.093 95.644-228.027zM.057 0v80.837L214.92 231.74l-.012-81.509zM683.288 230.398l-71.42-93.434c16.274-3.827 28.576-11.136 36.915-21.922 8.334-10.782 12.506-24.842 12.506-42.181 0-9.677-1.559-18.748-4.671-27.214-3.116-8.467-7.735-15.922-13.861-22.376a57.454 57.454 0 0 0-7.979-6.951c-4.638-3.45-9.934-6.36-15.897-8.723-9.429-3.728-20.452-5.594-33.084-5.594h-91.733V230.03h58.95v-87.703l.004.008-.023-71.87.019.03V47.669h11.128c11.625 0 20.55 2.419 26.766 7.258 6.213 4.839 9.324 11.795 9.324 20.868 0 9.073-3.111 16.028-9.324 20.867-5.582 4.345-13.369 6.722-23.315 7.166l-.194 60.933 41.856 65.27h.267l.237.368h73.529z"/>
    </g> -->
    <g>
          <path fill="#FFFFFF" d="M66.409,3.796c0.524,0,0.787,0.412,0.787,0.862c0,0.45-0.225,0.937-0.787,0.937H59.96V30.38
            c0,0.563-0.487,0.825-0.938,0.825c-0.487,0-0.938-0.263-0.938-0.825V5.595h-6.524c-0.487,0-0.787-0.45-0.787-0.899
            c0-0.45,0.3-0.9,0.787-0.9H66.409z"/>
          <path fill="#FFFFFF" d="M84.03,17.856H72.595V30.38c0,0.563-0.45,0.825-0.938,0.825c-0.45,0-0.938-0.263-0.938-0.825V4.583
            c0-0.563,0.487-0.787,0.938-0.787c0.487,0,0.938,0.225,0.938,0.787v11.548H84.03V4.583c0-0.563,0.487-0.787,0.938-0.787
            c0.487,0,0.938,0.225,0.938,0.787V30.38c0,0.563-0.45,0.825-0.938,0.825c-0.45,0-0.938-0.263-0.938-0.825V17.856z"/>
          <path fill="#FFFFFF" d="M91.828,4.583c0-0.563,0.487-0.787,0.938-0.787c0.487,0,0.938,0.225,0.938,0.787V30.38
            c0,0.563-0.45,0.825-0.938,0.825c-0.45,0-0.938-0.263-0.938-0.825V4.583z"/>
          <path fill="#FFFFFF" d="M99.626,4.583c0-0.412,0.3-0.787,0.825-0.787h6.411c4.237,0,7.912,1.762,7.912,7.274
            c0,4.724-2.7,6.674-6.112,7.161l6,11.623c0.074,0.15,0.112,0.301,0.112,0.451c0,0.486-0.375,0.937-1.012,0.937
            c-0.451,0-0.863-0.75-1.163-1.313l-5.887-11.511h-5.212V30.38c0,0.563-0.45,0.825-0.938,0.825c-0.45,0-0.938-0.263-0.938-0.825
            V4.583z M101.501,5.595v11.099h5.361c3.563,0,6.037-1.575,6.037-5.586c0-3.975-2.475-5.513-6.037-5.513H101.501z"/>
          <path fill="#FFFFFF" d="M126.509,3.796c4.237,0,7.574,2.137,7.574,7.874v11.662c0,5.736-3.337,7.874-7.574,7.874h-6.637
            c-0.524,0-0.899-0.376-0.899-0.788V4.583c0-0.412,0.375-0.787,0.899-0.787H126.509z M120.848,5.595v23.809h5.661
            c3.562,0,5.699-1.912,5.699-6.073V11.669c0-4.162-2.138-6.074-5.699-6.074H120.848z"/>
          <path fill="#FFFFFF" d="M164.564,30.755c-0.149,0.45-0.637,0.675-1.087,0.675s-0.938-0.225-1.013-0.675l-3.862-14.023
            l-3.861,14.023c-0.113,0.45-0.563,0.675-1.051,0.675c-0.487,0-0.937-0.225-1.05-0.675l-7.424-25.909
            c-0.037-0.113-0.037-0.15-0.037-0.263c0-0.487,0.525-0.787,1.013-0.787c0.374,0,0.749,0.187,0.862,0.563l6.636,23.696l3.825-14.21
            c0.112-0.488,0.563-0.75,1.012-0.75c0.413,0,0.9,0.263,1.051,0.75l3.937,14.21l6.562-23.696c0.113-0.375,0.487-0.563,0.862-0.563
            c0.487,0,1.013,0.3,1.013,0.787c0,0.113,0,0.15-0.038,0.263L164.564,30.755z"/>
          <path fill="#FFFFFF" d="M171.057,30.38c0-0.074,0-0.149,0.038-0.225l8.024-25.91c0.149-0.45,0.562-0.675,1.049-0.675
            c0.451,0,0.901,0.226,1.051,0.675l7.949,25.91c0,0.075,0.037,0.112,0.037,0.225c0,0.449-0.563,0.825-1.087,0.825
            c-0.338,0-0.638-0.15-0.751-0.563l-1.837-5.962h-10.798l-1.8,5.962c-0.15,0.412-0.451,0.563-0.825,0.563
            C171.619,31.205,171.057,30.904,171.057,30.38z M185.005,22.956l-4.837-16.011l-4.948,16.011H185.005z"/>
          <path fill="#FFFFFF" d="M188.091,4.846c-0.038-0.075-0.038-0.15-0.038-0.226c0-0.525,0.563-0.825,1.05-0.825
            c0.375,0,0.675,0.149,0.825,0.563l7.236,23.696l7.199-23.696c0.112-0.413,0.412-0.563,0.75-0.563c0.524,0,1.087,0.375,1.087,0.825
            c0,0.113-0.037,0.15-0.037,0.226l-7.949,25.909c-0.112,0.45-0.6,0.675-1.05,0.675c-0.487,0-0.899-0.225-1.05-0.675L188.091,4.846z
            "/>
          <path fill="#FFFFFF" d="M211.84,16.619h5.961c0.487,0,0.788,0.412,0.788,0.899c0,0.375-0.226,0.825-0.788,0.825h-5.961v11.061
            h12.373c0.487,0,0.787,0.45,0.787,0.938c0,0.413-0.225,0.863-0.787,0.863h-13.349c-0.449,0-0.899-0.263-0.899-0.825V4.621
            c0-0.563,0.45-0.825,0.899-0.825h13.349c0.563,0,0.787,0.45,0.787,0.862c0,0.487-0.3,0.937-0.787,0.937H211.84V16.619z"/>
    </g>
</svg>
